{"glyphs":{"0":{"ha":1260,"x_min":39,"x_max":1221,"o":"m 424 1325 q 439 1379 439 1367 l 438 1382 q 378 1322 426 1382 q 303 1217 329 1263 q 196 925 233 1094 q 176 657 176 836 q 188 453 176 533 q 300 101 219 243 q 503 -99 381 -42 q 628 -121 550 -121 q 695 -117 678 -121 q 732 -100 713 -114 q 784 -35 771 -72 q 797 78 797 1 q 764 264 797 179 q 608 558 731 349 q 429 915 472 793 q 393 1136 393 1022 q 424 1325 393 1242 m 679 1440 q 621 1449 635 1449 q 582 1444 607 1449 q 531 1432 547 1439 q 493 1407 515 1425 q 447 1263 447 1367 q 449 1222 447 1236 q 494 1031 454 1126 q 650 738 533 936 q 824 400 782 514 q 850 226 847 340 q 851 204 850 218 q 851 183 851 190 q 806 -42 851 51 q 789 -78 789 -72 q 790 -79 789 -79 q 803 -74 792 -79 q 867 -21 828 -60 q 932 56 907 18 q 1085 656 1085 281 l 1085 667 q 854 1350 1082 1139 q 679 1440 772 1424 m 511 1453 q 633 1465 563 1465 q 746 1454 699 1465 q 1033 1261 914 1411 q 1201 888 1153 1111 q 1221 650 1221 794 q 1206 450 1221 531 q 1097 149 1169 272 q 986 8 1057 79 q 853 -94 915 -64 q 635 -149 744 -149 q 556 -142 589 -149 q 228 53 361 -106 q 53 465 96 213 q 39 647 39 540 q 82 986 39 849 q 254 1292 138 1165 q 511 1453 371 1419 z "},"1":{"ha":508,"x_min":43,"x_max":467,"o":"m 263 1414 q 315 1465 308 1465 q 325 763 322 1465 q 342 7 328 57 q 433 -96 367 -86 q 467 -110 467 -101 q 256 -117 467 -117 q 43 -106 43 -117 q 78 -96 43 -101 q 172 17 147 -85 q 183 607 183 67 q 176 1179 183 1151 q 88 1260 163 1250 q 44 1272 44 1267 q 75 1288 44 1279 q 170 1335 115 1299 q 263 1414 225 1372 z "},"2":{"ha":1107,"x_min":43,"x_max":1067,"o":"m 419 1454 q 553 1464 464 1464 l 589 1464 q 772 1438 697 1461 q 1043 1196 969 1374 q 1063 1134 1058 1160 q 1067 1043 1067 1108 q 1051 906 1067 957 q 990 786 1036 854 q 825 626 929 697 q 474 433 721 556 q 183 276 246 322 q 64 82 64 186 q 75 25 64 49 q 197 -44 104 -44 q 424 7 279 -44 q 783 101 675 94 q 800 102 789 101 q 817 103 811 103 q 1031 13 969 103 q 1044 -53 1044 -10 q 1036 -101 1044 -85 q 1026 -112 1032 -112 q 990 -85 1019 -112 q 847 -33 931 -33 q 535 -96 758 -33 q 268 -149 346 -149 q 214 -143 236 -149 q 91 -67 139 -126 q 43 65 43 -8 q 47 108 43 86 q 157 290 69 207 q 494 531 244 372 q 838 797 742 686 q 935 1040 935 908 q 928 1125 935 1089 q 824 1340 906 1254 q 624 1442 742 1425 q 565 1446 594 1446 q 363 1391 454 1446 q 226 1240 271 1336 q 203 1115 203 1190 q 207 1047 203 1065 q 226 1000 211 1028 q 285 940 249 964 q 358 917 322 917 q 442 950 433 917 q 457 967 446 967 q 479 925 479 967 q 458 857 479 886 q 325 792 414 792 q 256 801 289 792 q 130 901 176 825 q 83 1075 83 978 q 129 1257 83 1174 q 247 1378 165 1322 q 419 1454 328 1433 z "},"3":{"ha":1147,"x_min":42,"x_max":1107,"o":"m 83 1253 q 245 1404 122 1343 q 521 1465 368 1465 l 526 1465 q 787 1408 675 1465 q 943 1254 899 1351 q 964 1167 964 1206 q 963 1147 964 1161 q 963 1125 963 1133 q 938 1008 960 1049 q 807 893 893 935 q 533 815 721 851 q 271 731 314 772 q 244 671 244 704 q 250 642 244 654 q 278 628 256 628 q 382 663 317 628 q 540 728 461 700 q 633 754 604 750 q 736 760 661 758 q 835 756 813 760 q 899 732 858 751 q 994 669 950 708 q 1061 588 1038 629 q 1107 393 1107 504 q 1085 247 1107 315 q 869 -37 1032 76 q 519 -150 707 -150 q 482 -149 494 -150 q 163 -40 283 -133 q 42 192 42 53 q 172 396 42 358 q 225 404 201 404 q 322 360 282 404 q 346 310 346 335 q 345 301 346 307 q 344 292 344 296 q 338 257 342 263 q 313 250 335 251 q 286 250 304 250 q 264 249 268 250 q 214 218 244 249 q 190 186 193 197 q 186 136 186 175 q 270 -42 188 29 q 488 -124 353 -114 q 522 -125 499 -125 q 785 -39 678 -125 q 938 206 893 47 q 951 375 951 254 q 948 482 951 460 q 925 546 944 504 q 657 717 844 717 q 594 713 625 717 q 368 624 478 694 q 246 571 286 571 q 221 576 232 571 q 192 610 204 586 q 179 654 179 633 q 180 660 179 657 q 181 664 181 663 q 249 751 192 717 q 461 828 307 785 q 698 919 619 872 q 807 1033 776 967 q 826 1144 826 1076 q 804 1275 826 1217 q 750 1360 788 1319 q 674 1417 713 1400 q 518 1446 608 1446 q 456 1442 486 1446 q 263 1361 332 1426 q 194 1194 194 1296 q 203 1117 194 1144 q 235 1067 211 1090 q 294 1042 258 1042 q 351 1061 325 1042 q 382 1068 375 1081 q 390 1040 390 1056 q 363 981 390 1011 q 296 942 336 951 q 257 936 271 936 q 165 963 210 936 q 96 1032 121 989 q 67 1158 67 1082 q 83 1253 67 1214 z "},"4":{"ha":1131,"x_min":42,"x_max":1089,"o":"m 644 1397 l 660 1442 l 747 1442 q 835 1436 835 1442 q 489 903 835 1429 q 143 369 143 378 l 146 369 q 206 388 161 369 q 336 419 257 408 q 400 425 392 425 q 481 411 429 425 q 657 346 539 397 q 868 285 793 285 q 922 290 886 285 q 1039 357 1019 310 q 1046 389 1046 375 q 939 475 1046 446 q 854 506 879 492 q 816 581 822 526 q 810 878 810 635 l 810 1179 l 946 1179 l 946 851 q 954 508 946 525 q 996 476 964 493 q 1051 435 1038 456 q 1064 375 1064 415 q 982 233 1064 289 l 946 210 l 950 138 q 978 -28 957 19 q 1050 -90 1000 -75 q 1089 -110 1089 -103 q 878 -117 1089 -117 q 665 -106 665 -117 q 701 -96 665 -101 q 756 -71 732 -92 q 806 108 794 -32 l 811 176 l 750 188 q 560 251 688 196 q 406 310 457 296 q 297 324 356 324 q 250 322 267 324 q 168 315 193 321 q 104 292 143 310 q 74 278 89 285 q 51 269 60 272 q 42 267 42 265 q 88 342 42 272 q 206 527 133 411 q 359 780 279 643 q 518 1084 439 917 q 644 1397 597 1251 z "},"5":{"ha":1169,"x_min":42,"x_max":1129,"o":"m 190 1510 q 256 1524 214 1524 q 311 1522 288 1524 q 501 1488 403 1518 q 717 1422 675 1432 q 833 1410 760 1413 q 893 1408 858 1408 q 965 1422 936 1408 q 1022 1467 1006 1439 q 1032 1482 1029 1478 q 1038 1488 1035 1486 q 1042 1486 1040 1489 q 1047 1476 1043 1483 q 1057 1433 1057 1461 q 1035 1351 1057 1389 q 860 1268 986 1268 q 578 1326 753 1268 q 301 1389 390 1389 q 204 1368 246 1389 q 161 1331 172 1351 q 146 1265 150 1310 q 142 1104 142 1219 q 144 947 142 982 q 154 911 146 913 l 156 911 q 240 976 172 911 q 395 1085 319 1051 q 561 1118 471 1118 q 606 1117 590 1118 q 957 968 818 1099 q 1124 622 1096 839 q 1129 539 1129 585 q 1034 195 1129 353 q 781 -36 939 38 q 543 -90 667 -90 q 171 64 325 -90 q 42 347 42 193 q 43 378 42 367 q 67 501 47 451 q 132 596 88 551 q 217 655 175 639 q 324 671 258 671 q 446 638 399 669 q 503 549 493 606 l 508 517 l 472 535 q 381 554 433 554 q 315 542 340 554 q 219 433 254 508 q 197 332 197 388 l 197 315 q 369 -14 200 93 q 554 -67 451 -67 q 714 -29 639 -67 q 884 131 815 21 q 981 392 953 240 q 990 528 990 444 q 972 707 990 643 q 808 975 929 875 q 529 1075 686 1075 q 488 1074 501 1075 q 334 1027 397 1065 q 211 906 271 989 q 143 836 163 836 q 124 861 131 836 q 119 1013 119 874 q 121 1164 119 1110 q 134 1440 125 1394 q 190 1510 143 1485 z "},"6":{"ha":1351,"x_min":39,"x_max":1311,"o":"m 806 874 q 654 890 739 890 q 518 875 575 890 q 331 781 417 846 q 207 639 244 715 q 178 528 178 581 q 207 403 178 475 q 366 157 264 258 q 601 13 468 56 q 821 -15 688 -15 q 957 -3 900 -15 q 1172 113 1096 28 q 1249 322 1249 199 q 1246 365 1249 338 q 1106 694 1226 561 q 806 874 985 828 m 700 1504 q 793 1506 708 1506 l 856 1506 q 1143 1465 1007 1503 l 1174 1457 l 1174 1332 q 1160 1203 1174 1203 q 1138 1228 1153 1203 q 1039 1324 1107 1278 q 892 1392 971 1369 q 708 1414 811 1414 q 531 1392 604 1414 q 250 1210 344 1333 q 191 1107 221 1171 q 149 993 161 1043 q 136 804 136 950 q 144 650 136 701 l 150 599 l 169 654 q 254 811 199 739 q 383 930 304 878 q 547 1006 461 982 q 696 1021 604 1021 q 881 1001 807 1021 q 1028 944 969 978 q 1149 850 1088 911 q 1274 667 1238 761 q 1311 442 1311 574 q 1275 219 1311 313 q 1157 43 1239 126 q 771 -121 1015 -100 q 722 -122 756 -122 q 407 -56 543 -122 q 135 217 231 35 q 39 647 39 400 q 183 1188 40 975 q 394 1394 272 1319 q 700 1504 515 1468 z "},"7":{"ha":1031,"x_min":42,"x_max":989,"o":"m 690 1514 q 817 1525 732 1522 l 829 1525 q 919 1513 889 1525 q 972 1467 949 1500 q 989 1414 989 1443 q 988 1381 989 1394 q 936 1225 983 1311 q 764 969 889 1139 q 551 628 629 786 q 453 249 453 422 q 557 -24 453 68 l 597 -60 l 576 -76 q 532 -90 558 -90 q 453 -65 494 -90 q 383 4 413 -39 q 333 115 347 58 q 318 260 318 172 q 333 402 319 350 q 390 543 346 454 q 624 860 465 689 q 850 1128 790 1042 q 919 1286 910 1214 q 922 1315 922 1311 q 901 1356 922 1333 q 797 1394 867 1394 q 571 1343 717 1394 q 260 1263 343 1263 q 179 1276 217 1263 q 81 1344 121 1297 q 42 1439 42 1392 q 50 1476 42 1460 q 69 1492 58 1492 q 88 1471 83 1492 q 133 1426 92 1449 q 222 1404 171 1404 l 246 1404 q 347 1416 300 1406 q 538 1471 393 1426 q 690 1514 603 1492 z "},"8":{"ha":1218,"x_min":42,"x_max":1176,"o":"m 492 1522 q 611 1532 539 1532 q 790 1511 728 1532 q 1050 1317 985 1450 q 1074 1258 1069 1279 q 1079 1192 1079 1236 q 1074 1126 1079 1146 q 1050 1065 1069 1106 q 926 933 1011 989 q 676 819 842 876 q 290 627 397 721 q 183 383 183 533 q 390 1 183 136 q 497 -50 450 -37 q 631 -62 543 -62 q 726 -58 704 -62 q 796 -31 749 -54 q 975 136 910 25 q 1040 383 1040 247 q 972 636 1040 526 q 803 763 903 746 q 763 782 763 769 q 782 789 763 789 q 863 774 810 789 q 951 742 917 760 q 1117 594 1058 689 q 1176 379 1176 499 q 1106 144 1176 250 q 910 -25 1036 38 q 781 -74 835 -61 q 638 -86 726 -86 l 617 -86 q 447 -69 515 -85 q 297 -14 379 -54 q 109 147 176 44 q 42 365 42 249 q 78 526 42 446 q 203 660 110 596 q 421 761 297 724 q 753 881 679 839 q 938 1135 917 976 q 942 1190 942 1164 q 764 1476 942 1393 q 597 1517 679 1517 q 564 1511 578 1517 q 515 1496 542 1500 q 376 1423 449 1483 q 283 1301 304 1363 q 269 1204 269 1261 q 290 1083 269 1133 q 504 903 349 939 q 567 882 567 888 q 475 857 567 857 q 316 896 393 858 q 192 997 239 933 q 131 1192 131 1075 q 153 1306 131 1258 q 311 1461 201 1404 q 492 1522 389 1501 z "},"9":{"ha":1354,"x_min":40,"x_max":1317,"o":"m 733 1390 q 507 1414 653 1414 q 450 1411 464 1414 q 135 1214 213 1372 q 108 1093 113 1167 l 108 1068 q 267 682 108 846 q 660 504 426 518 q 700 503 674 503 q 943 565 814 503 q 1101 681 1040 613 q 1174 828 1161 749 q 1176 858 1176 847 q 1110 1080 1176 953 q 956 1276 1044 1207 q 733 1390 860 1354 m 486 1506 q 613 1515 531 1515 q 833 1493 753 1515 q 1064 1372 968 1454 q 1228 1157 1160 1290 q 1317 740 1317 979 q 1258 388 1317 551 q 981 17 1174 147 q 525 -114 788 -114 q 258 -82 392 -114 q 197 -65 213 -71 q 179 -47 182 -58 q 175 46 175 -29 q 183 179 175 167 q 189 183 186 183 q 242 136 199 183 q 417 20 310 61 q 643 -21 524 -21 q 960 63 818 -21 q 1115 210 1047 114 q 1204 408 1182 306 q 1217 611 1217 467 q 1210 743 1217 708 l 1203 776 l 1188 735 q 1047 528 1144 621 q 831 397 949 435 q 683 379 772 379 l 640 379 q 521 383 553 379 q 442 403 489 388 q 151 599 253 467 q 42 925 49 732 q 40 969 40 940 q 99 1219 40 1101 q 486 1506 213 1450 z "},"\u0000":{"ha":347,"x_min":0,"x_max":0,"o":""},"\r":{"ha":347,"x_min":0,"x_max":0,"o":""}," ":{"ha":347,"x_min":0,"x_max":0,"o":""},"!":{"ha":289,"x_min":42,"x_max":247,"o":"m 78 1438 q 144 1510 101 1510 q 185 1490 167 1510 q 213 1438 203 1469 q 222 1315 222 1399 q 201 958 222 1175 q 171 561 183 783 q 144 247 153 247 q 133 347 139 247 q 89 956 114 704 q 68 1313 68 1168 q 78 1438 68 1399 m 89 86 q 146 103 117 103 q 233 53 207 103 q 247 -7 247 25 q 241 -42 247 -29 q 214 -75 235 -54 q 181 -102 193 -96 q 146 -108 168 -108 q 76 -76 110 -108 q 47 -42 53 -56 q 42 0 42 -29 q 89 86 42 58 z "},"$":{"ha":1171,"x_min":42,"x_max":1129,"o":"m 683 633 q 592 671 596 671 q 588 394 588 671 q 593 -33 588 3 l 599 -67 l 642 -67 q 798 -35 718 -67 q 931 49 878 -3 q 1035 268 1035 150 q 1003 396 1035 329 q 893 520 969 464 q 683 633 817 576 m 567 1440 q 556 1500 561 1500 q 507 1492 549 1497 q 260 1384 357 1468 q 151 1181 164 1300 q 150 1153 150 1171 q 325 903 150 1006 q 453 841 375 874 q 553 808 532 808 l 556 808 q 569 1094 565 811 l 569 1218 q 567 1440 569 1390 m 551 1749 q 576 1761 564 1761 q 617 1726 600 1761 q 628 1686 628 1700 q 618 1619 628 1668 q 604 1533 604 1539 q 700 1514 604 1521 q 976 1467 846 1506 l 1036 1449 l 1036 1343 q 1029 1238 1036 1238 q 996 1283 1021 1238 q 638 1496 890 1468 q 613 1497 626 1497 q 598 1492 601 1497 q 592 1472 594 1488 q 589 1322 589 1456 q 590 1225 589 1294 q 590 1117 590 1156 l 592 789 l 681 756 q 1010 579 904 672 q 1128 364 1117 486 q 1129 335 1129 354 q 999 62 1129 182 q 665 -90 869 -58 q 607 -104 607 -101 q 618 -182 607 -107 q 628 -250 628 -240 q 618 -290 628 -267 q 606 -314 611 -308 q 590 -319 600 -319 q 585 -319 589 -319 q 578 -318 581 -318 q 531 -253 531 -314 q 536 -196 531 -243 q 542 -159 539 -179 q 548 -126 546 -139 q 550 -111 550 -114 q 496 -97 550 -101 q 299 -49 404 -87 q 107 47 194 -10 l 46 88 l 46 193 q 54 299 46 299 q 82 267 61 299 q 223 106 139 182 q 389 -8 307 31 q 549 -57 494 -57 q 561 -54 558 -57 q 567 315 567 -49 l 567 681 l 465 721 q 238 824 311 783 q 118 917 164 865 q 57 1007 72 967 q 42 1119 42 1047 q 46 1195 42 1174 q 69 1257 50 1217 q 235 1431 119 1361 q 497 1515 351 1501 q 554 1529 554 1521 q 540 1610 554 1532 q 532 1686 532 1658 q 551 1749 532 1728 z "},"%":{"ha":1507,"x_min":39,"x_max":1467,"o":"m 461 1428 q 378 1456 424 1456 q 319 1443 347 1456 q 169 1043 169 1371 l 169 1035 q 304 639 169 721 q 376 619 336 619 q 436 632 408 619 q 544 767 504 660 q 585 1025 585 874 q 583 1074 585 1057 q 564 1243 579 1171 q 522 1354 550 1303 q 461 1428 493 1406 m 281 1471 q 371 1483 318 1483 l 376 1483 q 611 1376 524 1483 q 710 1074 699 1268 q 711 1032 711 1060 q 647 750 711 868 q 474 601 582 632 q 381 590 433 590 q 265 607 308 590 q 117 732 175 640 q 43 958 58 824 q 39 1040 39 1000 q 105 1318 39 1200 q 281 1471 171 1436 m 732 682 q 1074 1464 1042 1413 q 1096 1483 1086 1483 q 1119 1476 1119 1483 q 640 336 1119 1471 q 438 -132 451 -107 q 417 -149 426 -149 l 411 -149 l 407 -149 q 386 -149 390 -151 q 386 -136 382 -146 q 732 682 392 -121 m 1213 689 q 1133 713 1175 713 q 978 604 1033 713 q 924 299 924 496 q 979 -6 924 106 q 1131 -117 1035 -117 q 1195 -103 1169 -117 q 1250 -57 1221 -90 q 1328 142 1300 1 q 1338 289 1338 190 q 1318 514 1338 444 q 1213 689 1283 643 m 1029 732 q 1132 746 1067 746 q 1267 722 1217 746 q 1415 565 1363 676 q 1467 296 1467 453 q 1413 32 1465 140 q 1261 -121 1360 -76 q 1203 -142 1226 -137 q 1132 -146 1181 -146 q 1003 -122 1053 -146 q 851 31 904 -78 q 797 296 799 139 q 1029 732 797 650 z "},"&":{"ha":1310,"x_min":40,"x_max":1268,"o":"m 533 1472 q 679 1482 583 1482 q 957 1456 854 1482 q 1053 1426 1043 1432 q 1108 1275 1067 1418 q 1147 1126 1147 1140 q 1142 1119 1147 1119 l 1139 1119 q 1103 1168 1128 1119 q 1018 1278 1075 1221 q 831 1399 940 1356 q 613 1442 721 1442 q 413 1392 496 1442 q 323 1292 360 1358 q 286 1161 286 1225 q 314 1058 286 1111 q 383 979 342 1006 q 564 935 451 935 q 628 936 604 935 q 775 947 739 940 q 799 949 794 951 q 803 932 803 946 q 792 913 803 918 q 736 897 782 908 q 481 778 614 871 q 274 578 347 685 q 193 335 193 460 q 284 97 193 200 q 532 -39 375 -6 q 606 -49 575 -49 q 681 -42 625 -49 q 1022 111 892 -15 q 1128 266 1085 171 q 1172 433 1172 361 q 1171 458 1172 450 q 968 618 1150 604 l 907 622 l 868 568 q 818 489 833 519 q 722 346 803 458 l 640 231 l 586 275 q 532 324 532 317 q 601 383 532 331 q 788 557 668 436 q 975 761 908 678 q 1090 924 1047 853 q 1144 1001 1133 996 q 1209 954 1150 1001 q 1268 903 1268 907 q 1111 782 1268 901 q 967 660 967 675 q 968 658 967 658 q 1104 654 978 654 l 1226 654 l 1243 619 q 1261 531 1261 585 q 1227 361 1261 454 q 1138 194 1193 268 q 1124 174 1129 183 q 1115 160 1118 165 q 1114 154 1113 154 l 1115 153 q 1072 105 1115 146 q 990 33 1029 64 q 750 -100 883 -51 q 493 -149 617 -149 q 397 -140 443 -149 q 141 3 242 -110 q 40 279 40 115 q 96 497 40 382 q 467 832 196 703 l 567 881 l 471 881 l 457 881 q 325 895 374 881 q 235 949 276 910 q 164 1119 164 1011 l 164 1128 q 239 1335 165 1260 q 533 1472 335 1435 z "},"<":{"ha":803,"x_min":42,"x_max":764,"o":"m 613 1015 q 697 1035 657 1035 q 764 981 764 1035 q 668 904 764 931 q 444 838 611 888 q 222 772 278 789 q 92 729 92 735 q 118 713 92 722 q 163 704 144 704 q 239 682 178 704 q 513 596 267 672 q 719 522 674 544 q 764 472 764 500 q 700 422 764 422 l 694 422 q 597 447 653 424 q 392 551 542 469 q 219 638 235 638 q 122 681 203 638 q 42 731 42 724 q 138 776 42 736 q 307 858 217 810 q 613 1015 549 989 z "},"=":{"ha":857,"x_min":39,"x_max":818,"o":"m 61 847 q 111 864 82 864 q 264 840 150 864 q 429 815 392 815 q 593 840 471 815 q 746 865 715 865 q 797 847 776 865 q 818 801 818 828 q 744 747 818 747 q 600 769 703 747 q 428 792 496 792 q 260 769 363 792 q 115 747 167 747 q 56 764 72 747 q 39 804 39 781 q 61 847 39 831 m 743 510 q 585 535 724 510 q 428 561 447 561 q 268 535 397 561 q 115 511 158 511 q 61 528 82 511 q 39 567 39 546 q 60 607 39 586 q 111 628 81 628 q 260 603 143 628 q 428 579 365 579 q 597 603 489 579 q 747 628 717 628 q 796 611 775 628 q 818 569 818 593 q 797 528 818 546 q 743 510 775 510 z "},">":{"ha":797,"x_min":39,"x_max":756,"o":"m 39 944 q 53 978 39 964 q 90 992 67 992 q 115 990 106 992 q 440 844 185 986 q 650 740 526 794 q 756 685 756 693 q 647 628 756 678 q 411 508 518 568 q 210 402 257 424 q 122 376 163 381 q 101 375 114 375 q 39 426 39 375 q 61 468 39 454 q 456 603 106 497 q 631 656 518 622 q 713 686 717 681 q 402 783 708 690 q 88 879 96 875 q 39 944 39 907 z "},"?":{"ha":1093,"x_min":40,"x_max":1053,"o":"m 625 1440 q 460 1464 557 1464 q 390 1458 417 1464 q 188 1365 258 1435 q 118 1186 118 1296 q 172 1004 118 1082 q 313 908 226 926 q 367 903 339 903 q 525 974 436 903 q 606 1029 575 1015 q 675 1043 636 1043 q 715 1038 703 1043 q 747 1014 728 1033 q 764 997 760 1001 q 771 983 768 992 q 774 963 774 975 q 771 915 774 957 q 743 800 768 846 q 673 713 724 765 q 588 640 622 661 q 561 617 561 625 q 567 614 561 614 q 576 615 572 614 q 661 638 578 617 q 883 747 825 678 q 942 967 942 815 q 885 1208 942 1100 q 625 1440 796 1378 m 375 1479 q 513 1492 426 1492 q 658 1479 603 1492 q 906 1354 800 1449 q 1040 1136 1011 1260 q 1053 1031 1053 1082 q 935 753 1053 864 q 669 600 861 682 q 443 472 507 529 q 369 332 379 415 q 367 299 367 307 q 396 224 367 257 l 417 199 l 394 181 q 344 161 368 161 q 268 206 301 161 q 235 311 235 251 q 246 372 235 339 q 324 489 268 435 q 501 617 381 543 q 679 754 624 690 q 747 900 735 818 q 749 922 749 907 q 727 991 749 964 q 672 1018 706 1018 q 613 1000 643 1018 q 521 924 583 982 q 413 842 456 864 q 313 817 369 819 l 290 817 q 69 954 142 817 q 44 1016 47 996 q 40 1106 40 1036 q 44 1192 40 1169 q 65 1251 49 1215 q 192 1395 106 1332 q 375 1479 278 1458 m 292 69 q 347 86 318 86 q 422 54 390 86 q 453 -21 453 22 q 442 -69 453 -43 q 401 -108 432 -92 q 340 -124 369 -124 q 328 -122 332 -124 q 265 -85 288 -114 q 242 -18 242 -56 q 292 69 242 39 z "},"@":{"ha":1689,"x_min":39,"x_max":1650,"o":"m 692 1481 q 824 1489 736 1489 q 1035 1472 972 1489 q 1482 1181 1314 1394 q 1650 686 1650 967 q 1517 299 1650 439 q 1426 228 1469 247 q 1314 210 1382 210 q 1129 279 1199 211 q 1075 353 1090 317 q 1056 458 1060 390 l 1050 539 l 1035 506 q 946 346 982 389 q 863 283 914 308 q 809 264 832 268 q 733 260 786 260 q 625 275 665 260 q 543 331 585 290 q 467 522 468 406 q 547 732 467 657 q 825 861 626 807 q 1019 927 975 901 q 1064 999 1064 953 q 990 1104 1064 1069 q 940 1120 964 1117 q 853 1124 917 1124 q 764 1120 786 1124 q 717 1103 742 1117 q 662 1054 683 1083 q 640 999 640 1025 q 653 960 640 978 q 681 942 665 942 q 692 929 692 942 q 671 892 692 913 q 619 872 651 872 q 569 888 592 872 q 539 931 547 903 q 532 972 532 954 q 622 1096 532 1047 q 857 1144 713 1144 q 1078 1100 988 1144 q 1168 997 1168 1056 q 1142 939 1168 967 q 1092 908 1121 918 q 907 861 1063 899 q 662 748 738 821 q 575 543 586 675 q 574 514 574 533 q 636 353 574 415 q 763 297 692 297 q 839 311 801 297 q 957 412 903 333 q 1035 592 1011 490 q 1051 764 1051 671 q 1044 831 1051 813 q 1042 846 1039 843 q 1068 849 1046 849 q 1119 837 1101 849 q 1150 792 1136 825 q 1167 725 1163 765 q 1172 553 1171 685 q 1179 335 1175 350 q 1213 283 1185 310 q 1272 247 1242 257 q 1326 240 1300 240 q 1444 268 1392 240 q 1580 424 1529 311 q 1631 683 1631 538 q 1630 701 1631 689 q 1629 721 1629 714 q 1469 1163 1619 964 q 1191 1392 1357 1311 q 843 1474 1025 1474 q 526 1404 675 1474 q 220 1161 340 1318 q 68 806 100 1004 q 57 688 57 735 q 69 565 57 633 q 222 208 104 361 q 525 -32 339 56 q 663 -81 606 -69 q 842 -93 721 -92 l 899 -93 q 1060 -72 986 -93 q 1317 53 1214 -26 q 1371 83 1357 83 l 1372 83 q 1374 81 1374 83 q 1318 32 1374 71 q 1207 -36 1263 -7 q 846 -124 1040 -124 q 498 -45 665 -124 q 211 179 331 33 q 115 335 160 242 q 56 504 71 428 q 39 685 39 583 q 53 844 39 771 q 275 1258 103 1086 q 692 1481 447 1429 z "},"A":{"ha":1560,"x_min":36,"x_max":1521,"o":"m 819 1004 q 721 1228 729 1228 q 693 1182 710 1228 q 418 413 432 483 l 413 383 l 731 383 q 1049 394 1049 383 q 819 1004 1049 425 m 672 1440 q 757 1490 736 1490 q 781 1478 768 1490 q 915 1155 797 1458 q 1182 446 1033 851 q 1321 94 1285 167 q 1476 -65 1388 -33 q 1521 -89 1521 -83 q 1275 -100 1521 -100 q 1024 -92 1024 -100 q 1047 -79 1024 -83 q 1138 -22 1115 -64 q 1153 38 1153 4 q 1082 318 1153 100 l 1072 349 l 397 349 l 388 326 q 318 49 321 149 l 318 40 q 338 -42 318 -18 q 417 -78 358 -65 q 439 -92 439 -83 q 235 -100 439 -100 q 36 -89 36 -100 q 82 -64 36 -82 q 205 43 154 -37 q 333 336 256 124 q 611 1071 503 793 q 689 1297 689 1269 q 688 1304 689 1303 q 569 1339 667 1339 q 515 1353 515 1340 q 538 1365 515 1365 q 586 1380 560 1365 q 672 1440 613 1394 z "},"B":{"ha":1296,"x_min":36,"x_max":1256,"o":"m 786 693 q 525 711 733 707 l 315 715 l 315 -67 l 504 -67 q 733 -56 665 -67 q 872 -10 801 -46 q 1053 168 993 50 q 1078 232 1074 210 q 1082 328 1082 254 q 1078 425 1082 403 q 1056 488 1075 447 q 786 693 982 644 m 788 1410 q 532 1431 731 1428 q 415 1432 489 1432 q 322 1429 325 1432 q 315 1083 315 1422 l 315 747 l 488 747 q 714 761 657 747 q 755 772 742 768 q 774 780 768 776 q 793 792 779 783 q 828 811 807 801 q 921 879 876 835 q 989 971 965 924 q 1010 1028 1007 1006 q 1014 1115 1014 1050 q 1010 1199 1014 1176 q 994 1244 1007 1221 q 788 1410 931 1364 m 36 1456 q 204 1467 36 1467 q 428 1465 332 1467 q 871 1446 813 1463 q 1149 1239 1075 1389 q 1171 1179 1167 1200 q 1175 1099 1175 1158 q 1171 1020 1175 1043 q 1153 967 1167 997 q 922 764 1090 831 l 872 744 l 932 729 q 1087 662 1015 708 q 1185 565 1158 615 q 1241 438 1226 488 q 1256 325 1256 389 q 1153 61 1256 174 q 882 -86 1050 -51 q 379 -101 808 -101 q 38 -89 38 -101 q 58 -76 38 -81 q 131 -17 106 -68 l 150 22 l 150 671 q 143 1350 150 1308 q 114 1408 136 1383 q 65 1438 92 1432 q 36 1456 36 1442 z "},"C":{"ha":1239,"x_min":35,"x_max":1199,"o":"m 574 1485 q 736 1500 639 1500 q 885 1488 822 1500 q 1113 1374 1028 1458 q 1199 1174 1199 1289 q 1144 987 1199 1071 q 946 781 1090 903 q 776 607 794 653 q 768 553 768 583 q 785 482 768 503 q 800 457 800 463 q 776 450 800 450 q 706 495 735 450 q 676 601 676 540 l 676 618 q 728 754 682 692 q 899 917 775 817 q 1065 1072 1024 1018 q 1106 1193 1106 1126 q 1105 1204 1106 1196 q 1104 1217 1104 1213 q 1002 1410 1096 1343 q 739 1476 908 1476 l 733 1476 q 589 1460 643 1476 q 346 1277 449 1415 q 199 935 243 1139 q 178 697 178 843 q 199 461 178 553 q 321 157 240 276 q 471 -1 381 67 q 640 -82 561 -68 q 725 -87 672 -87 q 883 -71 829 -87 q 1035 6 964 -47 q 1144 125 1106 60 q 1175 163 1167 163 q 1182 58 1182 163 l 1182 -44 l 1113 -65 q 750 -115 935 -115 q 593 -101 658 -115 q 283 61 418 -65 q 83 375 149 188 q 44 524 54 460 q 35 696 35 589 q 47 878 36 810 q 92 1035 58 946 q 284 1325 156 1206 q 574 1485 413 1444 z "},"D":{"ha":1338,"x_min":36,"x_max":1299,"o":"m 760 1451 q 581 1474 701 1474 q 339 1442 422 1474 l 315 1433 l 315 -49 l 347 -57 q 583 -85 446 -85 q 729 -71 675 -85 q 953 63 856 -39 q 1103 318 1051 165 q 1161 694 1161 489 q 1126 992 1161 844 q 990 1285 1085 1165 q 760 1451 894 1404 m 383 1488 q 579 1500 492 1500 q 847 1460 733 1500 q 1053 1333 960 1419 q 1299 699 1299 1107 q 1223 297 1299 476 q 1011 17 1147 117 q 586 -115 832 -115 q 431 -106 528 -115 q 169 -86 278 -90 q 36 -75 36 -81 q 76 -57 36 -69 q 134 -17 115 -44 q 164 67 153 10 q 178 726 178 139 q 165 1318 178 1256 q 126 1418 151 1386 q 57 1450 100 1450 q 36 1463 36 1450 q 58 1473 36 1471 q 161 1476 81 1475 q 383 1488 278 1476 z "},"E":{"ha":1185,"x_min":36,"x_max":1146,"o":"m 40 1442 q 596 1450 46 1450 l 1146 1450 l 1146 1344 q 1139 1238 1146 1238 q 1115 1275 1133 1238 q 1037 1348 1094 1318 q 863 1404 979 1378 q 557 1422 797 1418 l 311 1426 l 314 1110 q 319 785 317 797 q 324 783 319 783 q 381 804 339 783 q 465 831 432 831 q 510 829 490 831 q 671 792 582 826 q 858 739 808 739 q 879 740 872 739 q 971 799 951 749 q 988 822 979 822 q 993 806 993 822 q 958 725 993 767 q 875 667 922 683 q 793 653 838 653 q 554 732 692 653 q 449 785 474 779 q 425 788 432 788 q 342 758 378 788 l 315 736 l 315 -94 l 513 -89 q 764 -75 717 -83 q 1014 -2 928 -47 q 1121 111 1100 43 q 1139 146 1132 146 q 1146 18 1146 146 l 1146 -108 l 590 -108 q 36 -100 36 -108 q 53 -92 36 -92 q 107 -75 81 -92 q 146 -33 133 -58 q 173 96 167 6 q 179 447 179 186 q 178 575 179 482 q 178 726 178 668 q 173 1208 175 1108 q 161 1335 171 1308 q 79 1421 135 1411 q 39 1436 39 1428 q 40 1442 39 1440 z "},"F":{"ha":1192,"x_min":33,"x_max":1151,"o":"m 43 1444 q 440 1449 47 1449 l 600 1449 l 1151 1446 l 1151 1342 q 1140 1236 1151 1236 q 1128 1263 1133 1236 q 1084 1319 1121 1288 q 1004 1367 1047 1350 q 837 1409 921 1399 q 561 1422 753 1419 l 317 1426 l 317 754 l 346 779 q 492 832 407 832 q 692 785 569 832 q 875 740 803 740 q 976 796 951 740 q 996 822 989 822 q 1001 808 1001 822 q 1000 792 1001 799 q 932 695 990 736 q 803 654 874 654 q 564 733 701 654 q 419 789 467 789 q 378 778 397 789 q 328 706 336 756 q 321 392 321 656 q 336 18 322 69 q 428 -87 363 -78 q 461 -101 461 -93 q 249 -108 461 -108 q 36 -97 36 -108 q 69 -87 36 -94 q 125 -58 103 -83 q 169 69 161 -19 q 179 607 176 157 q 180 740 179 657 q 181 856 181 824 q 174 1220 181 1122 q 149 1361 168 1318 q 111 1407 136 1389 q 58 1425 86 1425 q 38 1431 43 1425 q 43 1444 33 1436 z "},"G":{"ha":1553,"x_min":35,"x_max":1513,"o":"m 658 1476 q 790 1489 714 1489 q 894 1488 850 1489 q 1131 1469 1061 1483 l 1203 1454 l 1243 1293 q 1263 1215 1253 1257 q 1279 1151 1274 1172 l 1285 1131 q 1274 1128 1285 1128 q 1239 1174 1264 1128 q 1102 1337 1189 1269 q 911 1429 1015 1404 q 772 1442 861 1442 q 628 1429 686 1442 q 351 1273 468 1396 q 190 969 235 1150 q 171 779 171 900 q 190 581 171 658 q 418 138 251 314 q 921 -94 636 -94 q 1082 -67 1015 -94 q 1214 25 1149 -40 l 1243 56 l 1240 264 q 1235 446 1238 407 q 1219 511 1232 485 q 1183 559 1206 540 q 1136 578 1160 578 q 1124 590 1124 578 q 1157 601 1124 599 q 1318 603 1190 603 q 1513 592 1513 603 q 1485 574 1513 578 q 1445 555 1460 569 q 1415 506 1431 540 q 1396 265 1399 469 l 1390 60 l 1343 15 q 950 -135 1217 -104 q 844 -140 901 -140 q 297 63 522 -140 q 39 592 72 265 q 35 683 35 638 q 145 1103 35 913 q 447 1399 256 1294 q 658 1476 540 1450 z "},"H":{"ha":1408,"x_min":36,"x_max":1368,"o":"m 38 1438 q 73 1448 38 1446 q 244 1450 108 1450 q 417 1448 381 1450 q 453 1438 453 1446 q 426 1425 453 1425 q 373 1398 401 1425 q 333 1336 344 1371 q 319 1032 321 1299 l 315 763 l 350 788 q 490 831 410 831 q 711 785 572 831 q 917 739 853 739 q 946 742 929 739 q 994 769 968 747 q 1019 807 1019 792 q 1032 824 1019 824 q 1040 800 1046 824 q 838 654 1006 654 l 831 654 q 732 670 782 654 q 588 731 682 686 q 432 786 482 782 q 404 788 419 788 q 354 761 382 788 l 321 732 l 321 389 q 324 96 321 161 q 336 0 326 31 q 424 -87 360 -75 q 453 -97 453 -94 q 244 -108 453 -108 q 36 -97 36 -108 q 67 -87 36 -94 q 153 -4 126 -76 q 166 130 164 28 q 168 667 168 232 q 157 1331 168 1292 q 118 1397 146 1368 q 64 1425 90 1425 q 38 1438 38 1425 m 950 1444 q 1100 1449 954 1449 l 1158 1449 q 1365 1436 1361 1447 q 1361 1428 1367 1431 q 1346 1425 1356 1425 q 1256 1361 1285 1425 q 1230 1220 1236 1318 q 1224 856 1224 1122 q 1224 740 1224 824 q 1225 607 1225 657 q 1235 69 1228 157 q 1279 -58 1243 -19 q 1335 -87 1301 -83 q 1368 -97 1368 -94 q 1156 -108 1368 -108 q 942 -97 942 -108 q 975 -87 942 -94 q 1069 17 1044 -76 q 1085 597 1082 60 q 1086 874 1086 704 q 1079 1219 1086 1119 q 1054 1361 1072 1319 q 965 1425 1026 1425 q 950 1444 931 1425 z "},"I":{"ha":500,"x_min":36,"x_max":460,"o":"m 36 1438 q 72 1448 36 1446 q 247 1450 108 1450 q 423 1448 386 1450 q 460 1438 460 1446 q 439 1425 460 1425 q 349 1360 375 1425 q 323 1209 329 1319 q 317 815 317 1099 l 317 593 q 322 147 318 246 q 336 14 325 47 q 426 -87 363 -78 q 460 -101 460 -93 q 247 -108 460 -108 q 36 -101 36 -108 q 69 -87 36 -93 q 160 14 133 -78 q 172 141 169 47 q 178 592 175 235 q 178 724 178 642 q 179 838 179 806 q 173 1214 179 1108 q 147 1360 167 1319 q 57 1425 121 1425 q 36 1438 36 1425 z "},"J":{"ha":608,"x_min":36,"x_max":568,"o":"m 149 1442 q 361 1450 154 1450 q 532 1448 496 1450 q 568 1438 568 1446 q 547 1425 568 1425 q 467 1379 494 1425 q 434 1224 440 1335 q 424 574 428 1113 q 408 -146 418 -114 q 356 -264 390 -200 q 297 -349 321 -328 q 94 -437 200 -437 q 65 -435 85 -437 q 36 -424 36 -428 q 79 -410 36 -417 q 145 -391 121 -404 q 199 -346 169 -378 q 258 -237 250 -289 q 276 -140 264 -211 q 289 229 289 -82 q 288 608 289 449 q 283 1172 286 1043 q 269 1329 279 1300 q 188 1421 244 1411 q 147 1436 147 1428 q 149 1442 147 1440 z "},"K":{"ha":1331,"x_min":36,"x_max":1290,"o":"m 43 1444 q 254 1450 49 1450 q 424 1448 388 1450 q 460 1438 460 1446 q 439 1425 460 1425 q 349 1361 376 1425 q 324 1226 331 1321 q 318 896 318 1132 q 319 597 318 714 q 335 17 322 60 q 428 -87 360 -76 q 460 -101 460 -93 q 249 -108 460 -108 q 36 -97 36 -108 q 71 -87 36 -93 q 161 7 136 -78 q 174 145 172 43 q 176 671 176 247 q 174 1195 176 1090 q 161 1333 172 1300 q 124 1400 149 1375 q 71 1425 99 1425 q 40 1438 40 1425 q 43 1444 40 1442 m 971 1410 q 951 1446 951 1442 q 1022 1450 951 1450 q 1101 1438 1083 1450 q 1135 1376 1119 1426 q 1147 1293 1147 1336 q 1040 1028 1147 1146 q 876 896 974 953 q 604 774 778 839 q 438 705 474 724 q 401 667 401 686 q 419 635 401 646 q 507 603 436 625 q 764 468 681 550 q 911 268 799 436 q 1067 49 1026 94 q 1165 -42 1110 -3 q 1256 -87 1219 -81 q 1290 -99 1290 -93 q 1158 -108 1290 -108 l 1028 -108 l 992 -76 q 808 179 958 -44 q 618 445 682 371 q 468 574 554 519 q 383 638 390 622 q 374 668 374 657 q 416 727 374 696 q 564 811 458 758 q 779 931 717 888 q 896 1036 842 974 q 964 1136 938 1082 q 985 1195 982 1174 q 989 1285 989 1217 q 986 1368 989 1347 q 971 1410 983 1389 z "},"L":{"ha":1194,"x_min":36,"x_max":1154,"o":"m 40 1442 q 253 1450 46 1450 q 424 1448 388 1450 q 460 1438 460 1446 q 439 1425 460 1425 q 332 1300 358 1425 q 318 583 322 1254 l 314 -94 l 515 -89 q 942 -36 799 -82 q 1128 114 1108 15 q 1144 144 1133 139 l 1146 144 q 1154 19 1154 144 l 1154 -108 l 594 -108 q 36 -100 36 -108 q 53 -92 36 -92 q 107 -75 81 -92 q 146 -33 133 -58 q 173 93 167 7 q 179 438 179 179 q 178 565 179 472 q 178 717 178 658 q 173 1206 175 1104 q 161 1335 171 1308 q 79 1421 135 1411 q 39 1436 39 1428 q 40 1442 39 1440 z "},"M":{"ha":1671,"x_min":36,"x_max":1631,"o":"m 40 1464 q 43 1471 40 1468 q 119 1474 46 1474 l 171 1474 l 292 1471 l 560 913 q 697 624 599 831 q 840 324 794 418 q 889 231 886 229 q 1112 826 890 233 q 1333 1421 1333 1419 l 1354 1471 l 1488 1471 q 1621 1463 1621 1471 q 1615 1455 1622 1460 q 1599 1449 1608 1450 q 1540 1424 1558 1440 q 1508 1348 1522 1408 q 1490 1183 1493 1288 q 1486 881 1486 1079 q 1487 764 1486 847 q 1488 632 1488 681 q 1498 94 1490 182 q 1542 -33 1506 6 q 1597 -62 1564 -58 q 1631 -72 1631 -69 q 1418 -83 1631 -83 q 1206 -72 1206 -83 q 1239 -62 1206 -69 q 1332 42 1307 -51 q 1347 747 1346 93 l 1347 1006 q 1343 1386 1347 1397 q 928 278 1325 1344 q 828 29 836 32 q 796 79 818 26 q 668 353 785 107 q 597 506 643 406 q 488 740 550 606 q 389 951 425 875 q 349 1038 368 996 q 311 1118 329 1081 q 278 1188 293 1156 q 250 1247 263 1221 q 228 1291 238 1272 q 214 1319 219 1310 l 210 1329 q 206 832 208 1328 l 206 624 q 218 256 206 326 q 285 44 242 117 q 417 -60 338 -42 q 461 -76 461 -69 q 249 -83 461 -83 q 36 -72 36 -83 q 69 -62 36 -69 q 163 32 136 -53 q 176 170 174 68 q 178 696 178 272 q 176 1220 178 1115 q 163 1358 174 1325 q 124 1425 150 1400 q 71 1450 99 1450 q 40 1464 40 1450 z "},"N":{"ha":1374,"x_min":36,"x_max":1333,"o":"m 38 1463 q 114 1474 38 1474 l 174 1474 l 310 1471 l 585 1051 q 1014 400 864 625 l 1167 167 l 1175 235 q 1181 433 1181 278 q 1174 817 1181 613 q 1160 1074 1168 1022 q 1079 1335 1135 1235 q 951 1446 1024 1435 q 918 1464 918 1450 q 1035 1474 918 1474 l 1125 1474 q 1333 1463 1331 1471 q 1301 1447 1333 1454 q 1217 1361 1240 1435 q 1204 1211 1207 1332 q 1199 600 1201 1090 q 1186 -114 1197 -114 q 1153 -76 1179 -114 q 965 210 1143 -61 q 572 808 788 481 q 288 1240 356 1136 l 203 1369 l 200 933 l 200 799 q 207 392 200 485 q 280 82 224 200 q 422 -60 336 -36 q 461 -76 461 -69 q 249 -83 461 -83 q 36 -72 36 -83 q 69 -62 36 -69 q 139 -13 117 -56 q 171 149 161 29 q 181 522 181 268 q 179 806 181 699 q 169 1275 176 1182 q 136 1408 163 1368 q 58 1450 108 1450 q 38 1463 38 1450 z "},"O":{"ha":1514,"x_min":35,"x_max":1475,"o":"m 1019 1411 q 907 1422 981 1422 q 776 1408 826 1422 q 398 1134 569 1349 q 167 643 226 919 q 151 472 151 574 q 168 294 151 357 q 245 118 192 199 q 368 -7 299 38 q 588 -67 461 -67 q 954 69 778 -67 q 1247 439 1131 204 q 1363 890 1363 669 l 1363 900 q 1328 1126 1361 1035 q 1218 1294 1294 1217 q 1019 1411 1131 1382 m 700 1454 q 821 1467 756 1467 q 1083 1415 968 1467 q 1260 1297 1175 1376 q 1390 1129 1346 1217 q 1475 779 1475 964 q 1367 357 1475 567 q 1139 66 1278 185 q 833 -97 1000 -53 q 681 -111 779 -111 q 525 -97 581 -111 q 281 26 392 -64 q 107 243 169 117 q 35 561 35 388 l 35 574 q 48 743 35 672 q 97 903 61 814 q 343 1265 183 1119 q 700 1454 503 1411 m 826 900 q 831 896 826 906 q 838 874 833 888 q 876 810 847 840 q 940 768 906 781 l 972 757 l 939 743 q 865 688 896 724 q 833 618 835 651 q 822 629 832 606 q 817 642 819 633 q 772 708 803 678 q 713 744 740 739 q 683 760 683 751 q 696 764 683 764 q 756 792 719 764 q 807 850 792 821 q 826 900 824 886 z "},"P":{"ha":1239,"x_min":36,"x_max":1200,"o":"m 726 1463 q 578 1474 674 1474 q 453 1465 497 1474 q 367 1444 439 1464 l 317 1431 l 317 613 l 383 596 q 618 563 508 563 q 872 629 776 563 q 948 699 907 653 q 1008 782 989 746 q 1061 1025 1061 883 q 1006 1263 1061 1168 q 887 1390 963 1336 q 726 1463 811 1444 m 444 1488 q 656 1500 546 1500 q 826 1488 768 1500 q 1056 1371 961 1460 q 1185 1154 1151 1282 q 1200 1019 1200 1096 q 1182 874 1200 935 q 1042 657 1143 747 q 808 539 940 567 q 685 528 756 528 q 442 557 556 528 q 342 586 353 581 q 321 594 329 594 q 317 488 317 594 q 322 206 317 363 q 333 32 328 50 q 415 -60 357 -44 q 453 -76 453 -69 q 244 -83 453 -83 q 36 -72 36 -83 q 69 -62 36 -69 q 142 -8 119 -56 q 174 160 164 40 q 181 557 181 236 q 163 1340 181 1275 q 122 1424 147 1397 q 58 1450 97 1450 q 38 1463 38 1450 q 65 1473 38 1471 q 193 1476 92 1475 q 444 1488 339 1476 z "},"Q":{"ha":1664,"x_min":35,"x_max":1625,"o":"m 1097 1468 q 919 1492 1029 1492 q 778 1476 836 1492 q 469 1296 610 1431 q 246 969 328 1161 q 168 604 168 788 q 338 160 168 329 q 446 71 403 94 q 729 -7 576 -7 q 986 52 860 -7 q 1219 222 1113 111 q 1458 651 1392 403 q 1478 744 1474 706 q 1482 874 1482 782 l 1482 913 q 1463 1078 1482 1015 q 1324 1323 1417 1224 q 1097 1468 1231 1422 m 696 1547 q 818 1557 740 1557 q 1025 1535 943 1557 q 1398 1327 1246 1475 q 1607 967 1550 1179 q 1625 813 1625 900 l 1625 772 q 1603 568 1624 647 q 1382 172 1543 342 q 963 -62 1199 -17 q 833 -74 908 -74 q 535 -19 667 -74 q 475 -1 489 -1 l 472 -1 q 506 -81 467 -7 q 576 -194 546 -154 q 738 -331 642 -283 q 947 -378 835 -378 l 969 -378 q 1140 -324 1061 -374 q 1169 -315 1164 -308 q 1136 -408 1169 -337 q 1086 -494 1103 -482 q 1008 -507 1069 -507 q 629 -332 807 -507 q 440 -25 517 -221 q 413 33 424 18 q 372 67 401 49 q 178 255 263 138 q 54 506 93 372 q 35 676 35 572 l 35 717 q 40 851 36 817 q 58 933 43 886 q 302 1341 132 1178 q 696 1547 472 1504 m 835 881 l 844 904 l 856 871 q 896 810 867 839 q 957 769 925 781 l 988 758 l 943 736 q 880 685 908 719 q 851 624 851 650 q 836 639 850 611 l 829 653 q 779 717 813 688 q 724 747 746 747 q 703 756 708 747 q 704 762 701 760 q 714 764 707 764 q 781 798 736 764 q 826 850 825 832 q 835 881 826 860 z "},"R":{"ha":1339,"x_min":36,"x_max":1299,"o":"m 240 1476 q 449 1488 347 1479 q 633 1497 551 1497 l 689 1497 q 817 1492 782 1496 q 897 1472 851 1488 q 1103 1342 1025 1431 q 1199 1129 1181 1253 q 1203 1065 1203 1097 q 1083 785 1203 904 q 774 661 961 663 l 760 661 q 667 672 707 661 q 553 718 628 683 q 446 754 481 754 l 442 754 q 417 747 422 751 q 411 719 413 742 q 410 713 411 717 q 410 707 410 708 q 442 667 410 686 q 579 597 472 646 q 828 439 768 511 q 918 307 854 408 q 1110 40 1036 121 q 1257 -58 1185 -40 q 1299 -76 1299 -68 q 1168 -83 1299 -83 l 1036 -83 l 1001 -51 q 819 204 964 -17 q 624 479 668 432 q 493 592 575 528 q 408 667 431 638 q 385 724 385 696 q 443 771 385 771 q 568 736 494 771 q 750 689 675 689 q 776 690 768 689 q 914 744 850 696 q 1018 871 978 793 q 1061 1056 1061 957 q 1060 1100 1061 1085 q 1028 1244 1057 1186 q 866 1415 976 1356 q 601 1475 756 1475 q 361 1444 461 1475 l 315 1429 l 318 751 q 324 174 321 288 q 336 31 326 60 q 428 -62 363 -51 q 461 -72 461 -69 q 249 -83 461 -83 q 36 -72 36 -83 q 69 -62 36 -69 q 125 -33 103 -58 q 169 94 161 6 q 179 632 176 182 q 180 765 179 682 q 181 881 181 847 q 174 1245 181 1147 q 149 1386 168 1343 q 68 1449 126 1438 q 43 1463 43 1456 q 240 1476 43 1472 z "},"S":{"ha":1168,"x_min":36,"x_max":1126,"o":"m 460 1496 q 470 1497 461 1496 q 493 1497 479 1497 q 521 1497 507 1497 q 575 1497 536 1497 q 638 1496 614 1496 q 824 1485 758 1493 q 975 1450 890 1476 l 1036 1431 l 1036 1326 q 1026 1221 1036 1221 q 1001 1257 1018 1221 q 882 1386 965 1325 q 714 1467 799 1447 q 592 1478 667 1478 q 464 1467 517 1478 q 354 1428 415 1457 q 260 1371 293 1400 q 179 1263 210 1328 q 149 1135 149 1197 q 150 1108 149 1117 q 257 935 164 1003 q 594 785 350 868 q 934 638 826 706 q 1090 472 1042 569 q 1126 318 1126 399 q 1057 112 1126 208 q 861 -46 988 15 q 735 -94 792 -81 q 590 -114 679 -108 q 553 -115 578 -115 q 307 -72 435 -115 q 76 49 179 -28 l 36 78 l 36 167 q 53 281 36 281 q 88 242 61 281 q 341 2 196 88 q 633 -83 486 -83 q 842 -32 744 -83 q 983 92 933 15 q 1033 254 1033 169 q 942 458 1033 369 q 610 628 860 536 q 232 788 310 739 q 133 867 179 819 q 64 958 86 915 q 44 1013 49 990 q 40 1094 40 1035 q 44 1178 40 1156 q 68 1240 49 1200 q 460 1496 164 1439 z "},"T":{"ha":1158,"x_min":35,"x_max":1118,"o":"m 35 1365 l 35 1475 l 1118 1475 l 1118 1369 q 1108 1263 1118 1263 q 1099 1290 1106 1263 q 981 1394 1088 1349 q 728 1447 874 1439 l 644 1453 l 644 797 q 653 79 644 151 q 679 -16 663 13 q 732 -57 696 -44 q 771 -76 771 -69 q 568 -83 771 -83 q 364 -72 364 -83 q 397 -62 364 -69 q 490 38 464 -51 q 502 189 500 67 q 507 767 504 311 l 510 1453 l 422 1447 q 163 1390 274 1439 q 88 1336 124 1374 q 51 1276 51 1299 q 43 1256 51 1256 q 35 1365 35 1256 z "},"U":{"ha":1404,"x_min":36,"x_max":1364,"o":"m 39 1461 q 251 1467 44 1467 q 421 1465 385 1467 q 457 1454 457 1463 q 436 1442 457 1442 q 356 1396 385 1442 q 323 1249 329 1353 q 317 751 317 1144 q 324 256 317 343 q 369 93 331 168 q 434 6 392 50 q 514 -60 476 -39 q 706 -101 592 -101 q 875 -68 804 -101 q 1074 194 1024 1 q 1085 325 1083 233 q 1088 756 1088 417 q 1082 1240 1088 1143 q 1053 1388 1076 1338 q 969 1442 1026 1442 q 949 1454 949 1442 q 1065 1465 949 1465 l 1156 1465 q 1364 1454 1364 1463 q 1360 1450 1364 1453 q 1350 1444 1357 1447 q 1335 1440 1343 1442 q 1247 1353 1272 1431 q 1228 776 1232 1308 q 1221 304 1224 381 q 1204 188 1218 228 q 1068 -10 1165 68 q 833 -112 971 -89 q 707 -125 763 -125 q 581 -112 651 -125 q 201 188 285 -61 q 185 304 188 226 q 178 776 182 382 q 171 1233 174 1139 q 158 1354 168 1326 q 121 1417 146 1393 q 68 1442 96 1442 q 36 1454 36 1442 q 39 1461 36 1458 z "},"V":{"ha":1506,"x_min":36,"x_max":1467,"o":"m 42 1461 q 178 1465 46 1465 q 538 1454 538 1465 q 493 1440 538 1446 q 371 1382 394 1429 q 358 1317 358 1358 q 382 1188 358 1254 q 583 654 394 1149 q 776 149 772 160 q 807 86 800 86 q 850 194 813 86 q 943 458 885 301 q 1217 1251 1204 1156 q 1218 1281 1218 1261 q 1174 1397 1218 1353 q 1054 1442 1129 1442 q 1026 1454 1026 1442 q 1149 1465 1026 1465 l 1244 1465 q 1465 1453 1461 1464 q 1463 1444 1467 1447 q 1450 1442 1458 1442 q 1395 1423 1425 1442 q 1343 1375 1365 1404 q 1274 1229 1317 1342 q 996 494 1097 779 q 874 174 958 389 q 793 -36 794 -28 q 776 -92 789 -62 q 756 -121 764 -121 q 301 1051 739 -121 q 173 1344 225 1258 q 68 1438 121 1429 q 36 1451 36 1443 q 42 1461 36 1456 z "},"W":{"ha":2157,"x_min":36,"x_max":2118,"o":"m 1179 1426 q 1106 1440 1153 1440 q 1044 1429 1063 1440 q 1001 1331 1001 1408 q 1011 1260 1001 1293 q 1074 1081 1024 1213 q 1129 950 1124 950 q 1183 1093 1138 950 q 1236 1325 1236 1250 q 1179 1426 1236 1400 m 1804 1469 q 1985 1472 1954 1472 q 2117 1461 2114 1472 q 2109 1451 2118 1457 q 2083 1440 2100 1446 q 1956 1303 2013 1419 q 1805 919 1936 1263 q 1594 357 1674 575 q 1474 47 1542 214 q 1400 -124 1407 -121 q 1388 -115 1392 -125 q 1222 320 1363 -46 q 1079 689 1082 686 q 1056 637 1078 690 q 997 489 1033 583 q 918 285 960 394 q 753 -122 763 -125 q 389 815 742 -119 q 201 1294 235 1222 q 138 1393 174 1354 q 69 1438 101 1432 q 36 1456 36 1442 q 290 1467 36 1467 q 501 1465 457 1467 q 544 1454 544 1463 q 513 1442 544 1442 q 411 1415 453 1442 q 363 1346 369 1389 q 361 1325 361 1339 q 396 1176 361 1283 q 536 792 431 1069 q 750 228 594 636 q 814 82 806 82 q 819 88 818 82 q 946 426 829 107 l 1061 743 l 968 990 q 821 1341 867 1258 q 718 1438 775 1424 q 686 1454 686 1446 q 1167 1465 686 1465 q 1471 1458 1464 1465 q 1474 1453 1474 1456 q 1432 1438 1474 1447 q 1338 1353 1382 1428 q 1217 1075 1294 1278 l 1146 889 l 1300 483 q 1463 90 1449 90 q 1465 92 1464 90 q 1501 188 1475 104 q 1588 425 1526 261 q 1843 1132 1790 969 q 1871 1281 1871 1224 q 1828 1396 1871 1353 q 1707 1442 1782 1442 q 1679 1454 1679 1442 q 1804 1469 1679 1467 z "},"X":{"ha":1322,"x_min":35,"x_max":1282,"o":"m 43 1469 q 272 1475 49 1475 q 456 1473 417 1475 q 494 1463 494 1471 q 458 1450 494 1450 q 401 1429 421 1450 q 383 1382 383 1411 q 446 1204 383 1331 q 601 921 492 1110 q 719 732 710 732 q 904 1043 732 732 q 964 1171 932 1094 q 1019 1371 1019 1308 q 936 1454 1019 1444 q 894 1464 894 1460 q 1053 1474 894 1474 l 1090 1474 q 1271 1460 1271 1472 q 1242 1444 1271 1456 q 1175 1397 1213 1435 q 1092 1292 1147 1369 q 1010 1163 1038 1215 q 984 1119 1004 1153 q 926 1020 964 1085 q 864 913 889 956 q 743 685 743 710 q 892 415 743 668 q 1088 94 1040 163 q 1246 -68 1176 -37 q 1282 -87 1282 -83 q 1049 -92 1282 -92 q 817 -83 817 -92 q 851 -75 817 -75 q 911 -49 885 -75 q 935 -7 935 -25 q 932 17 935 -3 q 769 353 921 94 q 708 460 753 382 q 649 563 663 538 q 593 643 599 643 q 515 519 585 643 q 393 288 446 394 q 297 7 297 92 q 389 -75 297 -75 q 418 -83 418 -75 q 228 -92 418 -92 q 36 -81 36 -92 q 63 -71 36 -76 q 253 129 128 -60 q 446 444 313 221 q 579 678 579 668 q 521 786 579 685 q 175 1358 235 1282 q 110 1424 143 1399 q 56 1450 76 1450 q 38 1456 42 1450 q 43 1469 35 1461 z "},"Y":{"ha":1347,"x_min":36,"x_max":1307,"o":"m 36 1463 q 74 1473 36 1471 q 251 1475 111 1475 q 431 1473 393 1475 q 468 1463 468 1471 q 433 1450 468 1450 q 383 1440 399 1450 q 357 1401 367 1429 q 353 1375 353 1386 q 367 1315 353 1357 q 557 927 394 1235 q 735 619 719 619 q 897 924 743 619 q 1074 1292 1050 1229 q 1094 1386 1094 1344 q 1077 1435 1094 1421 q 1017 1450 1060 1450 q 976 1463 976 1450 q 1006 1473 976 1471 q 1142 1475 1035 1475 q 1278 1473 1249 1475 q 1307 1463 1307 1471 q 1289 1450 1307 1450 q 1194 1393 1240 1450 q 1064 1167 1149 1336 q 917 886 1054 1147 q 801 672 856 769 l 736 558 l 742 317 q 754 53 744 115 q 794 -42 764 -10 q 851 -71 817 -65 q 885 -81 885 -78 q 671 -92 885 -92 q 458 -81 458 -92 q 492 -71 458 -78 q 547 -42 525 -67 q 588 56 578 -10 q 601 321 597 122 l 606 560 l 515 722 q 425 889 425 888 q 371 992 425 892 q 254 1215 303 1118 q 143 1401 185 1351 q 54 1450 101 1450 q 36 1463 36 1450 z "},"Z":{"ha":1204,"x_min":36,"x_max":1171,"o":"m 621 592 q 413 261 621 590 q 206 -72 206 -68 q 260 -75 206 -75 q 511 -68 353 -75 q 721 -54 669 -61 q 1001 22 904 -26 q 1069 74 1038 40 q 1107 136 1100 108 q 1118 164 1114 164 q 1129 36 1129 164 l 1129 -92 l 36 -92 l 65 -47 q 476 608 476 597 q 896 1276 476 619 q 992 1431 988 1421 l 1003 1451 l 694 1449 q 427 1443 486 1447 q 321 1426 368 1439 q 115 1288 133 1375 q 99 1264 111 1264 q 88 1364 88 1264 q 93 1469 88 1464 q 672 1475 99 1475 q 1164 1471 1160 1475 q 775 839 1171 1464 q 621 592 621 596 z "},"a":{"ha":1104,"x_min":35,"x_max":1064,"o":"m 429 1035 q 524 1040 472 1040 q 753 1007 646 1040 q 911 919 861 974 q 939 882 933 896 q 944 843 944 868 q 939 805 944 817 q 913 772 933 793 q 830 726 883 744 q 661 683 776 707 q 426 616 511 651 q 285 526 340 581 q 199 390 229 472 q 168 224 168 308 q 207 57 168 129 q 294 -35 240 -3 q 414 -67 349 -67 q 615 17 524 -67 q 793 514 789 178 l 793 536 q 783 618 793 599 q 785 646 772 638 q 815 654 797 654 q 866 641 840 654 q 906 607 892 628 q 934 519 928 574 q 944 272 940 465 l 950 13 l 972 -22 q 1029 -67 996 -57 q 1064 -85 1064 -78 q 992 -92 1064 -92 q 906 -83 933 -92 q 856 -47 879 -74 q 815 24 824 -12 q 801 163 806 60 q 790 281 797 281 q 785 267 789 281 q 773 231 781 254 q 761 194 765 208 q 635 -19 718 65 q 439 -118 558 -97 q 372 -124 410 -124 q 188 -72 271 -124 q 61 69 104 -21 q 38 133 42 110 q 35 231 35 156 q 39 330 35 307 q 63 393 43 353 q 311 608 129 533 q 519 672 354 628 q 713 734 656 710 q 790 789 769 758 q 810 853 810 819 q 792 917 810 885 q 760 957 775 944 q 700 990 744 969 q 567 1017 653 1014 q 525 1018 553 1018 q 428 1010 464 1018 q 335 972 379 1000 q 275 917 290 944 q 260 850 260 886 q 272 795 260 818 q 303 772 283 772 q 319 756 319 772 q 294 710 319 733 q 226 681 265 681 q 175 697 197 681 q 115 811 115 738 q 178 940 115 886 q 429 1035 260 1014 z "},"b":{"ha":1183,"x_min":36,"x_max":1144,"o":"m 699 992 q 624 1000 661 1000 q 436 936 513 1000 q 388 864 418 921 q 343 760 358 807 q 331 657 333 725 q 328 336 328 589 l 328 -36 l 371 -53 q 500 -71 415 -71 q 650 -49 597 -71 q 804 44 732 -17 q 919 179 876 106 q 975 319 949 228 q 1007 540 1007 429 q 925 839 1007 715 q 699 992 843 963 m 36 1454 q 114 1465 36 1465 l 174 1465 l 311 1463 l 317 1213 q 324 904 322 938 l 325 844 l 382 906 q 625 1035 485 1014 q 694 1040 657 1040 q 928 975 819 1040 q 1090 803 1038 910 q 1144 563 1144 699 q 1143 514 1144 531 q 1064 203 1135 351 q 678 -78 958 -19 q 328 -92 611 -92 q 43 -81 43 -92 q 76 -71 43 -78 q 158 6 131 -62 q 186 557 186 71 l 186 735 q 174 1231 183 1114 q 138 1396 165 1347 q 57 1442 110 1442 q 36 1454 36 1442 z "},"c":{"ha":1090,"x_min":35,"x_max":1050,"o":"m 483 1042 q 568 1049 535 1049 q 679 1040 611 1049 q 888 990 782 1028 q 1000 925 993 953 l 1000 915 q 1001 899 1001 906 q 999 829 1001 882 q 990 760 993 760 q 982 769 989 760 q 803 953 919 885 q 565 1022 688 1022 q 417 990 482 1022 q 244 810 307 940 q 194 674 208 735 q 176 510 181 614 q 176 485 176 501 q 175 463 175 469 q 243 174 175 301 q 403 -1 303 61 q 621 -62 503 -62 q 894 28 765 -62 q 969 101 931 53 q 1019 183 1008 150 q 1040 200 1024 200 q 1050 190 1050 200 q 1013 118 1050 171 q 935 24 976 65 q 811 -65 872 -36 q 697 -108 740 -99 q 565 -118 653 -118 q 397 -96 464 -118 q 58 272 140 -3 q 35 464 35 349 q 54 636 35 568 q 212 913 99 806 q 483 1042 325 1019 z "},"d":{"ha":1250,"x_min":36,"x_max":1208,"o":"m 657 982 q 569 989 613 989 q 483 981 519 989 q 310 872 386 958 q 196 654 235 786 q 180 570 183 608 q 176 429 176 532 q 180 288 176 326 q 196 204 183 250 q 339 -44 243 43 q 567 -131 435 -131 q 735 -91 646 -131 q 867 3 824 -51 q 874 13 869 6 q 915 88 907 54 q 926 401 924 133 q 926 449 926 432 l 929 806 l 868 864 q 657 982 765 963 m 790 1435 q 929 1440 796 1440 l 1064 1440 l 1064 831 q 1072 114 1064 231 q 1103 -47 1081 -1 q 1179 -103 1126 -92 q 1208 -112 1208 -108 q 1068 -122 1208 -122 l 928 -122 l 928 -76 q 915 -22 928 -22 q 907 -29 911 -22 q 840 -78 896 -44 q 739 -126 783 -111 q 565 -156 654 -156 q 294 -81 419 -156 q 106 125 169 -6 q 36 429 36 268 q 197 861 36 696 q 365 975 275 940 q 581 1010 454 1010 l 589 1010 q 865 956 747 1010 q 926 931 922 931 q 929 975 929 931 q 922 1174 929 1051 q 908 1321 915 1296 q 872 1389 897 1363 q 818 1415 847 1415 q 788 1428 788 1415 q 790 1435 788 1432 z "},"e":{"ha":967,"x_min":35,"x_max":928,"o":"m 532 947 q 631 953 565 953 l 657 953 q 910 822 851 947 q 928 746 928 785 q 926 707 928 722 q 904 592 921 639 q 690 338 849 444 q 368 232 532 232 q 257 264 257 232 q 276 271 257 278 q 360 264 301 264 q 423 269 401 264 q 481 292 444 274 q 686 483 596 347 q 793 774 793 644 q 724 914 793 875 q 664 929 693 929 q 622 928 639 929 q 364 800 482 919 q 218 544 265 701 q 199 462 203 494 q 194 344 196 429 q 207 186 194 242 q 254 78 219 131 q 479 -44 333 -44 q 569 -31 526 -44 q 749 74 653 -6 q 886 228 846 153 q 918 268 908 268 q 925 260 925 268 q 856 126 925 228 q 660 -49 776 14 q 415 -112 543 -112 q 344 -107 392 -112 q 115 8 194 -86 q 35 260 35 101 q 235 765 35 549 q 378 883 297 833 q 532 947 458 932 z "},"f":{"ha":872,"x_min":36,"x_max":832,"o":"m 485 1465 q 575 1471 506 1471 q 789 1456 736 1471 l 832 1443 l 832 1357 q 822 1268 832 1268 q 804 1299 817 1268 q 617 1440 765 1413 q 547 1447 578 1447 q 429 1422 478 1447 q 364 1358 392 1403 q 326 1258 336 1314 q 318 1068 318 1211 q 325 939 318 939 q 351 960 333 939 q 447 997 386 997 q 604 978 494 997 l 692 963 l 742 1000 l 742 969 q 719 915 742 940 q 664 883 696 889 q 642 882 657 882 q 489 914 604 882 q 406 928 431 928 q 338 900 365 928 l 317 879 l 319 457 q 338 -10 322 36 q 425 -94 363 -82 q 456 -104 456 -100 q 246 -114 456 -114 q 36 -104 36 -114 q 67 -94 36 -100 q 153 -15 129 -82 q 167 114 164 14 q 174 599 171 214 q 188 1200 178 1168 q 303 1367 219 1293 q 485 1465 386 1442 z "},"g":{"ha":1151,"x_min":36,"x_max":1111,"o":"m 1011 -1 q 885 19 972 19 q 851 17 868 19 q 618 -50 731 -7 q 368 -114 457 -114 q 300 -128 321 -114 q 172 -331 172 -214 q 306 -515 172 -450 q 362 -538 343 -533 q 428 -543 381 -543 l 469 -543 q 657 -519 579 -542 q 964 -359 851 -468 q 1076 -110 1076 -250 q 1062 -44 1076 -68 q 1011 -1 1047 -19 m 713 975 q 603 997 668 997 q 515 983 557 997 q 366 858 425 951 q 290 626 307 765 q 286 553 286 589 q 324 366 286 447 q 431 249 363 285 q 529 229 469 229 q 650 254 600 229 q 795 413 739 297 q 851 669 851 529 q 713 975 851 904 m 1024 1215 q 1040 1253 1033 1253 q 1047 1160 1047 1253 l 1047 1065 l 1015 1051 q 882 1035 988 1039 l 781 1031 l 814 1017 q 928 944 888 986 q 989 836 968 903 q 1003 749 1003 792 q 1001 701 1003 721 q 913 426 992 550 q 713 243 835 301 q 496 193 611 193 q 442 194 461 193 q 383 196 417 196 q 308 179 343 196 q 200 58 200 126 q 206 31 200 43 q 293 -12 224 -12 q 374 1 331 -12 q 525 60 417 14 q 694 123 635 107 q 822 139 754 139 l 856 139 q 1005 107 950 135 q 1092 18 1060 79 q 1111 -94 1111 -18 q 1090 -226 1111 -175 q 814 -508 1019 -408 q 615 -583 708 -561 q 394 -612 522 -606 q 322 -615 336 -615 q 228 -603 274 -615 q 79 -511 132 -578 q 49 -451 63 -490 q 36 -382 36 -411 q 83 -258 36 -322 q 213 -142 131 -194 l 275 -103 l 247 -87 q 189 -42 217 -72 q 164 17 164 -12 q 165 28 164 19 q 165 43 165 38 q 189 123 168 92 q 261 185 210 154 q 307 217 307 213 q 261 250 307 219 q 151 394 183 297 q 139 478 139 433 q 140 529 139 508 q 296 893 153 747 q 448 1000 369 968 q 656 1042 526 1032 q 814 1058 794 1054 q 952 1121 894 1078 q 1024 1215 1010 1164 z "},"h":{"ha":1232,"x_min":32,"x_max":1192,"o":"m 42 1443 q 182 1449 47 1449 l 317 1449 l 317 999 l 343 999 q 503 1013 381 999 q 638 1022 590 1022 q 713 1017 675 1022 q 989 881 915 992 q 1035 757 1028 822 q 1047 396 1043 692 q 1064 -3 1053 29 q 1157 -94 1088 -83 q 1192 -104 1192 -100 q 979 -114 1192 -114 q 767 -107 767 -114 q 807 -89 767 -101 q 856 -64 840 -79 q 884 -4 872 -49 q 899 109 896 40 q 901 308 901 178 l 901 425 q 897 706 900 642 q 882 799 893 769 q 771 946 846 900 q 567 993 696 992 q 434 981 508 993 q 332 956 360 969 q 319 889 321 949 q 317 563 317 829 q 343 -19 317 54 q 378 -68 354 -47 q 428 -93 401 -89 q 461 -107 461 -99 q 249 -114 461 -114 q 36 -107 36 -114 q 69 -93 36 -99 q 125 -64 100 -89 q 169 63 161 -25 q 179 597 176 150 l 179 822 q 173 1211 179 1106 q 147 1360 167 1317 q 57 1424 119 1424 q 37 1429 42 1424 q 42 1443 32 1435 z "},"i":{"ha":500,"x_min":36,"x_max":460,"o":"m 188 1292 q 246 1306 213 1306 q 318 1274 289 1306 q 347 1200 347 1242 q 336 1154 347 1175 q 294 1115 325 1132 q 238 1097 264 1097 q 225 1099 229 1097 q 161 1138 185 1108 q 138 1204 138 1168 q 188 1292 138 1261 m 68 979 q 36 993 36 985 q 176 1001 36 1001 l 315 1001 l 315 969 q 332 50 319 114 q 362 -35 343 -7 q 419 -75 381 -62 q 460 -93 460 -87 q 247 -100 460 -100 q 36 -92 36 -100 q 53 -83 36 -83 q 107 -67 81 -83 q 146 -25 133 -50 q 172 88 165 14 q 179 339 179 163 q 178 413 179 360 q 178 499 178 467 q 161 886 175 847 q 68 979 135 968 z "},"j":{"ha":506,"x_min":36,"x_max":465,"o":"m 306 1292 q 361 1306 329 1306 q 425 1285 400 1306 q 465 1204 465 1251 q 436 1133 465 1164 q 358 1100 406 1100 q 278 1138 308 1100 q 256 1200 256 1164 q 306 1292 256 1265 m 182 978 q 146 994 146 988 q 286 1001 146 1001 l 425 1001 l 425 253 q 423 -374 425 -235 q 413 -544 421 -512 q 313 -715 385 -651 q 149 -778 242 -778 q 73 -765 110 -778 q 36 -739 36 -753 q 43 -728 36 -728 q 69 -739 47 -728 q 135 -751 90 -751 q 182 -744 161 -751 q 282 -568 260 -715 q 289 -50 289 -512 l 289 164 q 284 731 286 610 q 272 881 282 851 q 182 978 249 960 z "},"k":{"ha":1067,"x_min":36,"x_max":1028,"o":"m 42 1453 q 176 1458 47 1458 l 307 1458 l 311 1431 q 319 747 314 1413 q 322 334 321 460 q 328 117 324 208 q 340 4 333 25 q 364 -39 347 -17 q 419 -75 381 -62 q 460 -93 460 -87 q 247 -100 460 -100 q 36 -92 36 -100 q 53 -83 36 -83 q 107 -67 81 -83 q 146 -25 133 -50 q 173 101 167 15 q 179 447 179 188 q 178 575 179 482 q 178 726 178 668 q 173 1226 175 1135 q 161 1346 171 1317 q 123 1409 149 1385 q 69 1433 97 1433 q 39 1446 39 1433 q 42 1453 39 1450 m 756 978 q 731 993 731 985 q 811 1001 731 1001 q 932 990 921 1001 q 943 953 943 979 q 921 867 943 911 q 628 688 863 751 q 446 635 486 649 q 392 610 406 622 q 375 581 375 593 q 478 514 375 547 q 716 383 635 463 q 849 153 797 304 q 903 1 890 33 q 933 -49 917 -31 q 992 -79 958 -75 q 1028 -90 1028 -86 q 926 -100 1028 -100 l 825 -100 l 799 -71 q 751 33 772 -40 q 633 335 686 256 q 451 489 581 415 q 376 540 394 522 q 358 583 358 558 q 391 642 358 619 q 532 700 424 664 q 760 817 714 761 q 797 910 797 861 q 756 978 797 964 z "},"l":{"ha":500,"x_min":36,"x_max":460,"o":"m 40 1460 q 181 1467 44 1467 l 314 1467 l 318 783 q 327 123 321 236 q 364 -31 333 10 q 419 -67 381 -54 q 460 -85 460 -79 q 247 -92 460 -92 q 36 -83 36 -92 q 53 -75 36 -75 q 107 -58 81 -75 q 146 -17 133 -42 q 173 110 167 24 q 179 456 179 196 q 178 583 179 490 q 178 735 178 676 q 173 1224 175 1122 q 161 1351 171 1325 q 79 1438 135 1428 q 39 1454 39 1444 q 40 1460 39 1458 z "},"m":{"ha":1944,"x_min":36,"x_max":1904,"o":"m 431 1026 q 628 1038 532 1038 q 869 993 776 1038 l 907 975 l 994 996 q 1338 1039 1174 1038 q 1488 1028 1432 1039 q 1597 992 1544 1018 q 1669 939 1631 975 q 1722 874 1707 903 q 1754 754 1747 822 q 1765 417 1761 686 q 1782 22 1771 58 q 1861 -67 1806 -51 q 1904 -85 1904 -78 q 1699 -92 1904 -92 q 1485 -81 1485 -92 q 1514 -71 1485 -78 q 1600 7 1575 -61 q 1615 99 1611 35 q 1619 383 1618 164 l 1619 522 q 1613 768 1619 733 q 1439 992 1578 942 q 1275 1017 1375 1017 q 1024 971 1139 1017 q 964 933 964 949 q 972 918 964 926 q 1008 853 988 900 l 1032 801 l 1038 442 q 1057 32 1044 79 q 1149 -71 1083 -61 q 1182 -81 1182 -78 q 969 -92 1182 -92 q 757 -81 757 -92 q 792 -71 757 -76 q 882 24 857 -61 q 894 120 892 57 q 897 413 897 183 q 894 703 897 640 q 882 801 892 767 q 631 1010 828 983 q 563 1014 599 1014 q 365 988 464 1014 l 315 974 l 319 515 q 327 81 321 156 q 361 -35 333 6 q 415 -68 379 -60 q 453 -85 453 -78 q 244 -92 453 -92 q 36 -81 36 -92 q 67 -71 36 -78 q 153 13 126 -60 q 166 113 164 43 q 168 458 168 183 q 163 846 168 781 q 129 953 158 911 q 75 985 113 976 q 38 1001 38 994 q 158 1010 38 1007 q 431 1026 264 1010 z "},"n":{"ha":1222,"x_min":36,"x_max":1182,"o":"m 431 1026 q 624 1038 546 1038 q 874 994 783 1038 q 1010 850 964 950 l 1032 801 l 1038 450 q 1048 110 1042 197 q 1071 -10 1054 24 q 1149 -71 1097 -62 q 1182 -81 1182 -78 q 969 -92 1182 -92 q 756 -81 756 -92 q 789 -71 756 -78 q 882 24 856 -61 q 894 122 892 57 q 897 421 897 186 q 894 726 897 671 q 878 818 892 781 q 785 951 844 906 q 631 1010 725 997 q 563 1014 599 1014 q 365 988 464 1014 l 315 974 l 319 515 q 327 81 321 156 q 361 -35 333 6 q 415 -68 379 -60 q 453 -85 453 -78 q 244 -92 453 -92 q 36 -81 36 -92 q 67 -71 36 -78 q 153 13 126 -60 q 166 113 164 43 q 168 458 168 183 q 163 846 168 781 q 129 953 158 911 q 75 985 113 976 q 38 1001 38 994 q 158 1010 38 1007 q 431 1026 264 1010 z "},"o":{"ha":1143,"x_min":35,"x_max":1104,"o":"m 713 986 q 583 1014 657 1011 l 557 1014 q 424 988 479 1014 q 310 901 368 963 q 171 510 185 767 q 169 447 169 489 q 269 66 169 217 q 533 -97 369 -85 q 567 -99 544 -99 q 799 -12 703 -99 q 939 239 894 75 q 958 458 958 313 q 947 649 958 586 q 894 796 935 711 q 713 986 833 929 m 479 1035 q 546 1039 507 1039 q 713 1021 638 1039 q 995 819 886 975 q 1104 463 1104 664 q 1099 381 1104 436 q 858 -40 1065 94 q 561 -125 729 -125 q 415 -106 489 -125 q 194 31 290 -72 q 56 276 97 133 q 35 458 35 347 q 56 639 35 568 q 213 907 103 804 q 479 1035 322 1010 m 565 646 q 572 639 565 656 l 578 626 q 607 568 592 589 q 653 529 621 549 q 707 508 686 510 q 697 499 715 508 q 679 489 690 494 q 613 442 643 472 q 578 383 583 411 l 572 356 l 553 397 q 515 454 536 433 q 454 492 493 475 q 429 507 428 504 q 435 508 429 508 q 496 538 460 510 q 547 596 532 567 q 565 646 561 626 z "},"p":{"ha":1185,"x_min":36,"x_max":1146,"o":"m 699 993 q 624 1000 665 1000 q 338 764 415 1000 q 323 660 326 732 q 318 344 319 589 l 315 -29 l 351 -44 q 513 -72 419 -72 q 579 -67 551 -72 q 770 18 676 -49 q 917 175 864 85 q 1010 539 1010 333 q 990 700 1010 622 q 881 894 960 815 q 699 993 803 974 m 617 1035 q 696 1042 672 1042 q 782 1032 729 1042 q 1007 920 914 1008 q 1133 700 1100 832 q 1146 551 1146 650 q 1133 392 1146 450 q 682 -76 1053 13 q 557 -90 617 -90 q 490 -89 517 -90 q 344 -78 375 -83 l 317 -72 l 317 -275 q 333 -598 317 -508 q 397 -707 350 -687 q 443 -718 422 -718 q 461 -726 461 -718 q 249 -735 461 -735 q 36 -725 36 -735 q 69 -715 36 -722 q 165 -603 140 -704 q 176 138 176 -551 q 174 728 176 613 q 161 882 172 843 q 128 953 147 931 q 74 986 110 976 q 38 1003 38 996 q 176 1010 38 1010 l 317 1010 l 317 840 l 378 903 q 617 1035 488 1015 z "},"q":{"ha":1244,"x_min":35,"x_max":1204,"o":"m 875 951 q 603 1032 764 1026 q 585 1033 596 1032 q 568 1033 574 1033 q 429 1010 483 1033 q 317 926 375 986 q 211 757 244 853 q 172 515 178 661 q 172 488 172 506 q 171 463 171 471 q 313 25 171 175 q 563 -83 413 -83 q 799 -6 688 -83 q 915 146 892 61 q 922 436 922 174 l 922 549 l 919 919 l 875 951 m 458 1047 q 582 1056 504 1056 q 758 1043 681 1056 q 1007 1029 801 1035 q 1203 1018 1203 1024 q 1172 1006 1203 1011 q 1075 896 1097 992 q 1063 150 1063 839 q 1075 -590 1063 -540 q 1113 -663 1086 -635 q 1171 -697 1139 -692 q 1204 -707 1204 -703 q 992 -718 1204 -718 q 779 -707 779 -718 q 813 -697 779 -703 q 863 -672 839 -693 q 897 -624 888 -651 q 924 -196 924 -553 l 924 36 l 881 1 q 565 -107 740 -107 q 531 -106 542 -107 q 272 -23 383 -96 q 99 181 161 50 q 49 321 63 256 q 35 479 35 386 q 151 856 35 700 q 458 1047 267 1011 m 581 650 q 590 653 586 663 l 597 633 q 694 533 622 565 l 732 517 l 700 506 q 638 463 667 493 q 599 400 608 433 l 588 361 l 576 396 q 550 450 568 424 q 502 490 533 469 q 456 510 471 510 q 443 514 443 510 q 472 531 443 524 q 581 650 547 550 z "},"r":{"ha":1051,"x_min":36,"x_max":1011,"o":"m 167 1028 q 336 1034 221 1028 q 578 1049 451 1040 q 738 1060 704 1058 l 744 1060 q 963 986 893 1060 q 1011 864 1011 933 q 980 767 1011 808 q 896 717 949 725 q 881 715 890 715 q 800 754 821 715 q 792 776 792 768 q 813 796 792 788 q 851 835 836 806 q 867 901 867 865 q 804 1011 867 974 q 710 1029 774 1029 l 668 1029 q 365 1000 510 1026 l 317 990 l 318 536 q 336 39 321 83 q 428 -54 363 -43 q 461 -64 461 -61 q 249 -75 461 -75 q 36 -64 36 -75 q 69 -54 36 -61 q 151 21 124 -46 q 181 429 181 90 q 179 574 181 522 q 174 754 176 690 q 165 869 171 818 q 148 943 160 921 q 121 978 136 965 q 78 1000 106 992 q 38 1019 38 1013 q 167 1028 38 1025 z "},"s":{"ha":928,"x_min":35,"x_max":889,"o":"m 369 1056 q 410 1058 386 1058 q 632 1035 538 1058 q 763 986 696 1018 l 826 954 l 829 860 l 829 832 q 825 764 829 764 q 792 821 819 764 q 717 928 765 879 q 613 1004 669 976 q 549 1027 571 1024 q 450 1031 528 1031 q 352 1027 376 1031 q 297 1008 328 1024 q 175 897 210 968 q 154 813 154 856 q 169 743 154 778 q 262 652 193 690 q 500 561 331 614 q 800 422 717 493 q 889 226 883 350 l 889 208 q 826 28 889 99 q 628 -85 763 -43 q 475 -103 572 -103 l 415 -103 q 278 -98 313 -101 q 192 -79 243 -94 q 75 -35 111 -56 l 35 -12 l 35 83 q 42 179 35 179 q 67 135 50 179 q 122 50 83 94 q 203 -22 161 6 q 425 -85 300 -85 q 588 -53 511 -85 q 711 39 664 -21 q 763 186 763 103 q 715 311 763 264 q 626 369 683 343 q 438 438 568 396 q 235 513 301 481 q 129 590 169 544 q 60 782 60 665 q 82 889 60 844 q 306 1043 142 1010 q 369 1056 349 1053 z "},"t":{"ha":508,"x_min":36,"x_max":468,"o":"m 299 1360 q 307 1399 299 1399 q 315 1213 315 1399 l 315 1026 l 375 1026 q 435 1018 435 1026 q 374 1010 435 1010 l 315 1010 l 317 499 q 321 63 318 144 q 335 -35 324 -19 q 368 -57 349 -57 q 425 -22 392 -57 q 464 7 454 7 l 465 7 q 468 1 468 4 q 449 -33 468 -10 q 404 -75 431 -56 q 360 -100 376 -96 q 304 -104 344 -104 q 251 -100 263 -104 q 222 -76 239 -96 q 189 -17 199 -47 q 181 514 181 10 l 181 1010 l 108 1010 q 36 1018 36 1010 q 56 1026 36 1026 q 172 1067 113 1026 q 258 1164 232 1107 q 299 1360 299 1251 z "},"u":{"ha":1218,"x_min":36,"x_max":1178,"o":"m 36 1029 q 175 1035 36 1035 l 315 1035 l 317 610 q 322 238 318 307 q 339 131 325 169 q 421 -1 369 42 q 656 -72 504 -72 q 835 -47 742 -72 l 900 -31 l 900 403 q 899 728 900 631 q 885 897 897 826 q 858 983 874 968 q 804 1008 842 997 q 764 1028 764 1021 q 903 1035 764 1035 l 1043 1035 l 1046 558 q 1051 156 1047 246 q 1064 38 1054 67 q 1150 -46 1089 -33 q 1178 -54 1178 -50 q 1029 -68 1178 -62 q 751 -87 908 -72 q 588 -97 668 -97 q 254 18 357 -97 q 195 134 204 74 q 181 497 186 194 q 164 897 174 846 q 133 973 153 947 q 76 1010 113 999 q 36 1029 36 1022 z "},"v":{"ha":1211,"x_min":36,"x_max":1171,"o":"m 36 1028 q 124 1035 36 1035 q 267 1025 244 1035 q 339 956 317 1000 q 443 628 346 943 q 617 99 588 153 q 683 36 651 36 q 690 38 689 36 q 864 574 708 43 q 911 748 903 704 q 921 849 919 792 q 897 972 921 938 q 807 1015 872 1007 q 763 1025 763 1019 q 968 1035 763 1035 q 1171 1024 1171 1035 q 1135 1014 1171 1021 q 926 675 1021 996 q 878 518 908 610 q 772 192 831 376 q 668 -99 679 -97 q 664 -99 667 -99 q 660 -100 661 -100 q 553 -40 613 -100 q 508 11 524 -11 q 460 120 493 33 q 394 313 428 207 q 282 679 361 419 q 196 925 221 879 q 74 1017 151 1008 q 36 1028 36 1019 z "},"w":{"ha":1821,"x_min":36,"x_max":1781,"o":"m 36 1028 q 124 1035 36 1035 q 267 1025 244 1035 q 338 957 313 1003 q 431 669 350 935 q 598 147 560 246 q 675 39 636 49 q 700 36 697 33 q 731 130 701 39 q 797 341 760 221 q 854 528 835 461 l 894 661 l 871 747 q 814 900 849 831 q 756 986 786 960 q 679 1017 725 1013 q 636 1025 636 1021 q 751 1035 636 1035 q 851 1032 829 1035 q 892 1015 872 1029 q 979 861 939 983 q 1192 180 1157 281 q 1261 53 1228 79 q 1294 36 1282 36 q 1304 46 1299 36 q 1323 92 1310 56 q 1356 190 1336 128 q 1411 365 1376 253 q 1508 691 1482 589 q 1535 851 1535 793 q 1524 926 1535 889 q 1486 990 1511 971 q 1413 1015 1461 1010 q 1365 1028 1365 1021 q 1574 1035 1365 1035 q 1781 1026 1781 1035 q 1760 1018 1781 1018 q 1536 696 1638 1018 q 1296 -72 1411 307 q 1271 -100 1289 -100 q 1210 -78 1247 -100 q 1149 -29 1172 -57 q 1073 106 1107 19 q 946 488 1039 192 q 925 549 935 521 q 909 594 915 578 q 903 608 903 610 q 790 256 899 604 q 668 -99 681 -97 q 664 -99 667 -99 q 660 -100 661 -100 q 554 -42 613 -100 q 463 113 503 11 q 307 599 424 214 q 218 867 250 788 q 156 978 186 947 q 74 1017 126 1010 q 36 1028 36 1019 z "},"x":{"ha":1050,"x_min":36,"x_max":1010,"o":"m 72 1015 q 36 1028 36 1021 q 138 1035 36 1035 q 226 1032 206 1035 q 265 1015 246 1029 q 421 788 290 999 q 558 574 546 579 l 560 574 q 629 669 574 574 q 707 816 689 772 q 729 914 725 860 q 731 949 731 929 q 711 996 731 976 q 658 1018 689 1018 q 629 1026 629 1018 q 819 1035 629 1035 q 1010 1028 1010 1035 q 964 1013 1010 1022 q 851 953 904 1000 q 738 811 799 906 q 640 644 693 742 q 586 538 586 547 q 619 469 586 526 q 774 214 653 411 q 908 -3 896 17 q 986 -49 942 -49 q 1010 -57 1010 -49 q 910 -67 1010 -67 l 871 -67 q 778 -42 806 -67 q 672 111 750 -17 q 649 150 657 136 q 488 396 497 396 l 486 396 q 414 278 475 389 q 340 132 353 167 q 322 36 322 81 l 322 24 q 344 -29 322 -8 q 397 -49 367 -49 q 425 -57 425 -49 q 231 -67 425 -67 q 36 -57 36 -67 q 64 -49 36 -49 q 140 -24 96 -49 q 219 36 185 0 q 281 110 258 76 q 388 282 303 143 q 468 435 468 414 q 463 453 468 439 q 291 737 438 503 q 129 986 144 971 q 72 1015 107 1011 z "},"y":{"ha":1213,"x_min":36,"x_max":1172,"o":"m 36 1003 q 108 1008 36 1008 l 154 1008 l 272 1006 l 301 976 q 344 921 332 946 q 585 158 371 864 q 613 86 599 114 q 650 38 625 61 q 689 15 675 15 l 692 15 q 739 144 701 19 q 833 444 796 328 q 910 694 892 621 q 928 829 928 768 q 807 990 928 978 q 764 1001 764 993 q 968 1010 764 1010 q 1172 999 1172 1010 q 1138 989 1172 994 q 1008 861 1071 979 q 849 393 943 735 q 743 55 817 278 q 632 -264 669 -168 q 532 -487 593 -365 q 436 -654 471 -608 q 363 -723 393 -711 q 231 -735 332 -735 q 113 -728 113 -735 q 157 -711 113 -721 q 386 -556 258 -687 q 599 -258 514 -425 q 644 -143 644 -165 q 624 -117 644 -125 q 567 -76 601 -108 q 510 -7 533 -43 q 456 114 483 33 q 336 493 428 194 q 204 889 232 831 q 152 962 181 939 q 79 990 124 985 q 36 1003 36 996 z "},"z":{"ha":935,"x_min":36,"x_max":894,"o":"m 69 890 l 69 1010 l 486 1010 q 894 1000 894 1010 q 852 933 893 997 q 728 740 811 869 q 574 497 646 611 q 214 -71 214 -64 q 285 -74 214 -74 q 336 -73 299 -74 q 394 -72 374 -72 q 628 -54 554 -69 q 768 6 703 -39 q 844 92 821 42 q 879 144 869 144 q 892 28 892 144 l 892 -92 l 464 -92 q 36 -87 36 -92 q 144 88 36 -83 q 604 804 243 246 q 704 961 664 894 l 725 994 l 551 990 q 357 978 415 988 q 235 939 299 968 q 107 818 146 897 q 78 772 83 772 q 69 890 69 772 z "},"{":{"ha":431,"x_min":42,"x_max":389,"o":"m 314 1707 q 369 1721 344 1721 q 389 1713 389 1721 q 375 1704 389 1704 q 340 1686 358 1703 q 307 1644 321 1669 q 292 1518 292 1618 q 319 1313 293 1418 q 357 1064 357 1167 q 306 871 357 947 q 140 735 254 794 q 69 693 75 703 q 68 689 68 692 q 156 626 68 672 q 354 360 332 535 q 358 304 358 333 q 319 65 358 239 q 290 -158 290 -62 q 311 -276 290 -239 q 360 -325 332 -312 q 388 -347 388 -337 q 369 -354 388 -354 q 283 -317 329 -353 q 211 -226 238 -281 q 183 -76 183 -174 q 215 146 183 29 q 240 326 240 238 q 190 538 240 456 q 107 619 167 579 q 42 690 42 664 q 46 704 42 697 q 94 742 53 715 q 194 838 164 786 q 238 993 224 890 q 243 1056 243 1025 q 214 1218 243 1100 q 188 1411 192 1301 q 186 1481 186 1440 q 201 1569 186 1529 q 250 1651 217 1611 q 314 1707 283 1692 z "},"}":{"ha":424,"x_min":42,"x_max":382,"o":"m 69 1696 q 56 1702 69 1696 q 42 1715 42 1708 q 56 1722 42 1722 q 117 1704 83 1722 q 204 1615 169 1678 q 243 1475 239 1551 q 244 1460 243 1471 q 244 1443 244 1449 q 206 1196 244 1347 q 188 1047 188 1124 q 211 889 188 960 q 344 728 239 797 q 382 683 382 706 q 335 632 382 661 q 228 519 261 585 q 188 342 194 453 q 186 297 186 324 q 210 154 186 249 q 243 -69 243 24 q 188 -267 243 -186 q 125 -327 165 -300 q 57 -354 85 -354 q 42 -347 42 -354 q 71 -325 42 -337 q 119 -272 101 -311 q 139 -168 139 -229 q 104 61 139 -83 q 72 299 72 199 q 92 444 72 397 q 269 624 135 553 q 363 689 363 672 q 360 696 363 690 q 285 739 356 703 q 147 835 194 783 q 79 963 99 886 q 67 1057 67 1008 q 101 1283 67 1128 q 139 1533 139 1450 q 118 1640 139 1599 q 69 1696 97 1683 z "},"~":{"ha":940,"x_min":39,"x_max":899,"o":"m 203 774 q 296 788 239 788 q 474 756 382 788 q 683 700 629 700 q 725 704 703 700 q 804 723 781 713 q 860 761 828 733 q 896 788 888 788 q 899 783 899 788 q 874 735 899 772 q 825 674 850 699 q 750 617 788 635 q 654 596 713 600 q 622 594 643 594 q 376 657 531 594 q 279 692 308 685 q 211 700 250 700 l 206 700 q 122 685 160 700 q 72 646 85 669 q 51 628 63 628 q 39 633 39 628 q 56 667 39 639 q 117 726 72 693 q 203 774 163 758 z "},"":{"ha":347,"x_min":0,"x_max":0,"o":""}}}
